<?xml version="1.0" encoding="utf-8" standalone="no"?>
<!DOCTYPE svg PUBLIC "-//W3C//DTD SVG 1.1//EN"
  "http://www.w3.org/Graphics/SVG/1.1/DTD/svg11.dtd">
<svg height="309.812pt" version="1.1" viewBox="0 0 400.560625 309.812" width="400.560625pt" xmlns="http://www.w3.org/2000/svg" xmlns:xlink="http://www.w3.org/1999/xlink">
 <metadata>
  <rdf:RDF xmlns:cc="http://creativecommons.org/ns#" xmlns:dc="http://purl.org/dc/elements/1.1/" xmlns:rdf="http://www.w3.org/1999/02/22-rdf-syntax-ns#">
   <cc:Work>
    <dc:type rdf:resource="http://purl.org/dc/dcmitype/StillImage"/>
    <dc:date>2021-04-15T16:45:02.701079</dc:date>
    <dc:format>image/svg+xml</dc:format>
    <dc:creator>
     <cc:Agent>
      <dc:title>Matplotlib v3.4.0, https://matplotlib.org/</dc:title>
     </cc:Agent>
    </dc:creator>
   </cc:Work>
  </rdf:RDF>
 </metadata>
 <defs>
  <style type="text/css">*{stroke-linecap:butt;stroke-linejoin:round;}</style>
 </defs>
 <g id="figure_1">
  <g id="patch_1">
   <path d="M 0 309.812 
L 400.560625 309.812 
L 400.560625 0 
L 0 0 
z
" style="fill:#ffffff;"/>
  </g>
  <g id="axes_1">
   <g id="patch_2">
    <path d="M 36.240625 273.312 
L 393.360625 273.312 
L 393.360625 7.2 
L 36.240625 7.2 
z
" style="fill:#ffffff;"/>
   </g>
   <g id="matplotlib.axis_1">
    <g id="xtick_1">
     <g id="line2d_1">
      <defs>
       <path d="M 0 0 
L 0 3.5 
" id="maca33e48ac" style="stroke:#000000;stroke-width:0.8;"/>
      </defs>
      <g>
       <use style="stroke:#000000;stroke-width:0.8;" x="52.473352" xlink:href="#maca33e48ac" y="273.312"/>
      </g>
     </g>
     <g id="text_1">
      <!-- 0 -->
      <g transform="translate(49.692884 287.469812)scale(0.1 -0.1)">
       <defs>
        <path d="M 1778 4603 
Q 3272 4603 3272 2259 
Q 3272 1075 2886 498 
Q 2500 -78 1778 -78 
Q 288 -78 288 2259 
Q 288 3444 673 4023 
Q 1059 4603 1778 4603 
z
M 1778 384 
Q 2231 384 2462 823 
Q 2694 1263 2694 2259 
Q 2694 2953 2592 3351 
Q 2491 3750 2286 3945 
Q 2081 4141 1772 4141 
Q 1319 4141 1091 3694 
Q 863 3247 863 2259 
Q 863 1575 966 1175 
Q 1069 775 1272 579 
Q 1475 384 1778 384 
z
" id="ArialUnicodeMS-30" transform="scale(0.015625)"/>
       </defs>
       <use xlink:href="#ArialUnicodeMS-30"/>
      </g>
     </g>
    </g>
    <g id="xtick_2">
     <g id="line2d_2">
      <g>
       <use style="stroke:#000000;stroke-width:0.8;" x="118.060129" xlink:href="#maca33e48ac" y="273.312"/>
      </g>
     </g>
     <g id="text_2">
      <!-- 20 -->
      <g transform="translate(112.499192 287.469812)scale(0.1 -0.1)">
       <defs>
        <path d="M 3231 0 
L 197 0 
Q 197 388 467 784 
Q 738 1181 1478 1778 
Q 1931 2141 2287 2539 
Q 2644 2938 2644 3341 
Q 2644 3688 2398 3914 
Q 2153 4141 1778 4141 
Q 1400 4141 1144 3908 
Q 888 3675 884 3213 
L 306 3278 
Q 359 3922 764 4262 
Q 1169 4603 1791 4603 
Q 2466 4603 2842 4229 
Q 3219 3856 3219 3328 
Q 3219 2888 2901 2436 
Q 2584 1984 1638 1228 
Q 1141 831 978 544 
L 3231 544 
L 3231 0 
z
" id="ArialUnicodeMS-32" transform="scale(0.015625)"/>
       </defs>
       <use xlink:href="#ArialUnicodeMS-32"/>
       <use x="55.615234" xlink:href="#ArialUnicodeMS-30"/>
      </g>
     </g>
    </g>
    <g id="xtick_3">
     <g id="line2d_3">
      <g>
       <use style="stroke:#000000;stroke-width:0.8;" x="183.646906" xlink:href="#maca33e48ac" y="273.312"/>
      </g>
     </g>
     <g id="text_3">
      <!-- 40 -->
      <g transform="translate(178.085968 287.469812)scale(0.1 -0.1)">
       <defs>
        <path d="M 3263 1094 
L 2644 1094 
L 2644 0 
L 2081 0 
L 2081 1094 
L 97 1094 
L 97 1613 
L 2181 4581 
L 2644 4581 
L 2644 1613 
L 3263 1613 
L 3263 1094 
z
M 2081 1613 
L 2081 3681 
L 2069 3681 
L 647 1613 
L 2081 1613 
z
" id="ArialUnicodeMS-34" transform="scale(0.015625)"/>
       </defs>
       <use xlink:href="#ArialUnicodeMS-34"/>
       <use x="55.615234" xlink:href="#ArialUnicodeMS-30"/>
      </g>
     </g>
    </g>
    <g id="xtick_4">
     <g id="line2d_4">
      <g>
       <use style="stroke:#000000;stroke-width:0.8;" x="249.233683" xlink:href="#maca33e48ac" y="273.312"/>
      </g>
     </g>
     <g id="text_4">
      <!-- 60 -->
      <g transform="translate(243.672745 287.469812)scale(0.1 -0.1)">
       <defs>
        <path d="M 838 2363 
Q 1225 2969 1941 2969 
Q 2503 2969 2897 2553 
Q 3291 2138 3291 1491 
Q 3291 838 2898 380 
Q 2506 -78 1856 -78 
Q 1197 -78 733 409 
Q 269 897 269 2144 
Q 269 3369 689 3986 
Q 1109 4603 1906 4603 
Q 2422 4603 2778 4315 
Q 3134 4028 3213 3463 
L 2650 3413 
Q 2497 4141 1875 4141 
Q 1444 4141 1134 3712 
Q 825 3284 825 2363 
L 838 2363 
z
M 1844 384 
Q 2231 384 2472 696 
Q 2713 1009 2713 1453 
Q 2713 1897 2472 2187 
Q 2231 2478 1825 2478 
Q 1453 2478 1184 2204 
Q 916 1931 916 1484 
Q 916 1028 1180 706 
Q 1444 384 1844 384 
z
" id="ArialUnicodeMS-36" transform="scale(0.015625)"/>
       </defs>
       <use xlink:href="#ArialUnicodeMS-36"/>
       <use x="55.615234" xlink:href="#ArialUnicodeMS-30"/>
      </g>
     </g>
    </g>
    <g id="xtick_5">
     <g id="line2d_5">
      <g>
       <use style="stroke:#000000;stroke-width:0.8;" x="314.82046" xlink:href="#maca33e48ac" y="273.312"/>
      </g>
     </g>
     <g id="text_5">
      <!-- 80 -->
      <g transform="translate(309.259522 287.469812)scale(0.1 -0.1)">
       <defs>
        <path d="M 2425 2478 
Q 3284 2203 3284 1306 
Q 3284 716 2862 319 
Q 2441 -78 1778 -78 
Q 1109 -78 689 322 
Q 269 722 269 1325 
Q 269 1759 505 2084 
Q 741 2409 1141 2478 
L 1141 2491 
Q 453 2703 453 3419 
Q 453 3925 815 4264 
Q 1178 4603 1766 4603 
Q 2363 4603 2730 4253 
Q 3097 3903 3097 3406 
Q 3097 2731 2425 2491 
L 2425 2478 
z
M 1778 2700 
Q 2094 2700 2308 2901 
Q 2522 3103 2522 3406 
Q 2522 3716 2305 3928 
Q 2088 4141 1772 4141 
Q 1450 4141 1240 3931 
Q 1031 3722 1031 3438 
Q 1031 3097 1247 2898 
Q 1463 2700 1778 2700 
z
M 1778 384 
Q 2175 384 2440 640 
Q 2706 897 2706 1306 
Q 2706 1716 2432 1978 
Q 2159 2241 1766 2241 
Q 1356 2241 1100 1970 
Q 844 1700 844 1319 
Q 844 922 1108 653 
Q 1372 384 1778 384 
z
" id="ArialUnicodeMS-38" transform="scale(0.015625)"/>
       </defs>
       <use xlink:href="#ArialUnicodeMS-38"/>
       <use x="55.615234" xlink:href="#ArialUnicodeMS-30"/>
      </g>
     </g>
    </g>
    <g id="xtick_6">
     <g id="line2d_6">
      <g>
       <use style="stroke:#000000;stroke-width:0.8;" x="380.407237" xlink:href="#maca33e48ac" y="273.312"/>
      </g>
     </g>
     <g id="text_6">
      <!-- 100 -->
      <g transform="translate(372.06583 287.469812)scale(0.1 -0.1)">
       <defs>
        <path d="M 2400 0 
L 1838 0 
L 1838 3584 
Q 1416 3184 709 2906 
L 709 3450 
Q 1681 3916 2034 4603 
L 2400 4603 
L 2400 0 
z
" id="ArialUnicodeMS-31" transform="scale(0.015625)"/>
       </defs>
       <use xlink:href="#ArialUnicodeMS-31"/>
       <use x="55.615234" xlink:href="#ArialUnicodeMS-30"/>
       <use x="111.230469" xlink:href="#ArialUnicodeMS-30"/>
      </g>
     </g>
    </g>
    <g id="text_7">
     <!-- Number of Generation -->
     <g transform="translate(165.334219 300.619812)scale(0.1 -0.1)">
      <defs>
       <path d="M 4109 0 
L 3488 0 
L 1094 3597 
L 1081 3597 
L 1081 0 
L 506 0 
L 506 4581 
L 1125 4581 
L 3519 984 
L 3531 984 
L 3531 4581 
L 4109 4581 
L 4109 0 
z
" id="ArialUnicodeMS-4e" transform="scale(0.015625)"/>
       <path d="M 3116 0 
L 2613 0 
L 2613 488 
L 2597 488 
Q 2216 -78 1556 -78 
Q 1209 -78 914 83 
Q 619 244 520 526 
Q 422 809 422 1259 
L 422 3316 
L 984 3316 
L 984 1478 
Q 984 1038 1026 847 
Q 1069 656 1247 532 
Q 1425 409 1672 409 
Q 1991 409 2272 629 
Q 2553 850 2553 1544 
L 2553 3316 
L 3116 3316 
L 3116 0 
z
" id="ArialUnicodeMS-75" transform="scale(0.015625)"/>
       <path d="M 4922 0 
L 4359 0 
L 4359 2094 
Q 4359 2325 4328 2489 
Q 4297 2653 4167 2779 
Q 4038 2906 3763 2906 
Q 3431 2906 3190 2675 
Q 2950 2444 2950 1925 
L 2950 0 
L 2388 0 
L 2388 2156 
Q 2388 2588 2236 2747 
Q 2084 2906 1806 2906 
Q 1444 2906 1211 2656 
Q 978 2406 978 1722 
L 978 0 
L 416 0 
L 416 3316 
L 922 3316 
L 922 2853 
L 934 2853 
Q 1272 3391 1925 3391 
Q 2291 3391 2527 3245 
Q 2763 3100 2869 2809 
Q 3238 3391 3891 3391 
Q 4406 3391 4664 3112 
Q 4922 2834 4922 2278 
L 4922 0 
z
" id="ArialUnicodeMS-6d" transform="scale(0.015625)"/>
       <path d="M 1006 2944 
Q 1319 3391 1900 3391 
Q 2541 3391 2925 2925 
Q 3309 2459 3309 1709 
Q 3309 844 2879 383 
Q 2450 -78 1875 -78 
Q 1291 -78 966 416 
L 953 416 
L 953 0 
L 428 0 
L 428 4581 
L 991 4581 
L 991 2944 
L 1006 2944 
z
M 1831 384 
Q 2222 384 2476 720 
Q 2731 1056 2731 1663 
Q 2731 2247 2497 2589 
Q 2263 2931 1850 2931 
Q 1444 2931 1195 2578 
Q 947 2225 947 1684 
Q 947 1156 1050 932 
Q 1153 709 1361 546 
Q 1569 384 1831 384 
z
" id="ArialUnicodeMS-62" transform="scale(0.015625)"/>
       <path d="M 3309 1516 
L 825 1516 
Q 859 966 1139 675 
Q 1419 384 1838 384 
Q 2159 384 2378 554 
Q 2597 725 2713 1069 
L 3291 997 
Q 3150 478 2775 200 
Q 2400 -78 1838 -78 
Q 1091 -78 670 380 
Q 250 838 250 1631 
Q 250 2416 658 2903 
Q 1066 3391 1806 3391 
Q 2169 3391 2505 3231 
Q 2841 3072 3075 2689 
Q 3309 2306 3309 1516 
z
M 2731 1978 
Q 2697 2484 2417 2707 
Q 2138 2931 1806 2931 
Q 1409 2931 1153 2665 
Q 897 2400 856 1978 
L 2731 1978 
z
" id="ArialUnicodeMS-65" transform="scale(0.015625)"/>
       <path d="M 2216 3213 
L 2022 2694 
Q 1813 2816 1613 2816 
Q 1297 2816 1134 2533 
Q 972 2250 972 1741 
L 972 0 
L 409 0 
L 409 3316 
L 922 3316 
L 922 2816 
L 934 2816 
Q 1203 3391 1638 3391 
Q 1925 3391 2216 3213 
z
" id="ArialUnicodeMS-72" transform="scale(0.015625)"/>
       <path id="ArialUnicodeMS-20" transform="scale(0.015625)"/>
       <path d="M 1778 3391 
Q 2450 3391 2892 2953 
Q 3334 2516 3334 1709 
Q 3334 731 2856 326 
Q 2378 -78 1778 -78 
Q 1150 -78 687 337 
Q 225 753 225 1656 
Q 225 2531 672 2961 
Q 1119 3391 1778 3391 
z
M 1778 384 
Q 2259 384 2509 740 
Q 2759 1097 2759 1678 
Q 2759 2300 2476 2615 
Q 2194 2931 1778 2931 
Q 1350 2931 1075 2611 
Q 800 2291 800 1656 
Q 800 1025 1079 704 
Q 1359 384 1778 384 
z
" id="ArialUnicodeMS-6f" transform="scale(0.015625)"/>
       <path d="M 1991 4603 
L 1906 4109 
Q 1738 4141 1575 4141 
Q 1372 4141 1242 4055 
Q 1113 3969 1113 3628 
L 1113 3316 
L 1753 3316 
L 1753 2881 
L 1113 2881 
L 1113 0 
L 550 0 
L 550 2881 
L 50 2881 
L 50 3316 
L 550 3316 
L 550 3675 
Q 550 3925 597 4128 
Q 644 4331 845 4495 
Q 1047 4659 1466 4659 
Q 1716 4659 1991 4603 
z
" id="ArialUnicodeMS-66" transform="scale(0.015625)"/>
       <path d="M 4569 641 
Q 3703 -78 2675 -78 
Q 1622 -78 976 564 
Q 331 1206 331 2272 
Q 331 2922 595 3483 
Q 859 4044 1373 4351 
Q 1888 4659 2631 4659 
Q 3403 4659 3870 4320 
Q 4338 3981 4500 3303 
L 3956 3150 
Q 3828 3644 3497 3892 
Q 3166 4141 2631 4141 
Q 1803 4141 1381 3634 
Q 959 3128 959 2309 
Q 959 1697 1164 1290 
Q 1369 884 1770 676 
Q 2172 469 2644 469 
Q 3363 469 3981 941 
L 3981 1791 
L 2631 1791 
L 2631 2338 
L 4569 2338 
L 4569 641 
z
" id="ArialUnicodeMS-47" transform="scale(0.015625)"/>
       <path d="M 3138 0 
L 2572 0 
L 2572 2016 
Q 2572 2525 2389 2715 
Q 2206 2906 1881 2906 
Q 1631 2906 1407 2784 
Q 1184 2663 1090 2441 
Q 997 2219 997 1813 
L 997 0 
L 434 0 
L 434 3316 
L 941 3316 
L 941 2847 
L 953 2847 
Q 1131 3119 1392 3255 
Q 1653 3391 1997 3391 
Q 2259 3391 2515 3297 
Q 2772 3203 2917 3015 
Q 3063 2828 3100 2615 
Q 3138 2403 3138 2041 
L 3138 0 
z
" id="ArialUnicodeMS-6e" transform="scale(0.015625)"/>
       <path d="M 3303 0 
L 2713 0 
Q 2631 156 2597 409 
Q 2031 -78 1375 -78 
Q 850 -78 547 184 
Q 244 447 244 878 
Q 244 1291 536 1558 
Q 828 1825 1550 1913 
L 2075 1991 
Q 2369 2038 2559 2106 
Q 2559 2359 2543 2464 
Q 2528 2569 2451 2681 
Q 2375 2794 2206 2862 
Q 2038 2931 1753 2931 
Q 1391 2931 1180 2797 
Q 969 2663 891 2297 
L 341 2369 
Q 431 2878 806 3134 
Q 1181 3391 1838 3391 
Q 2434 3391 2714 3214 
Q 2994 3038 3058 2788 
Q 3122 2538 3122 2144 
L 3122 1388 
Q 3122 697 3148 461 
Q 3175 225 3303 0 
z
M 2559 1459 
L 2559 1663 
Q 2119 1516 1481 1430 
Q 844 1344 844 891 
Q 844 663 1016 514 
Q 1188 366 1509 366 
Q 1925 366 2242 614 
Q 2559 863 2559 1459 
z
" id="ArialUnicodeMS-61" transform="scale(0.015625)"/>
       <path d="M 1722 6 
Q 1472 -44 1300 -44 
Q 931 -44 762 86 
Q 594 216 556 416 
Q 519 616 519 972 
L 519 2881 
L 109 2881 
L 109 3316 
L 519 3316 
L 519 4141 
L 1081 4481 
L 1081 3316 
L 1644 3316 
L 1644 2881 
L 1081 2881 
L 1081 941 
Q 1081 691 1132 586 
Q 1184 481 1394 481 
Q 1516 481 1644 506 
L 1722 6 
z
" id="ArialUnicodeMS-74" transform="scale(0.015625)"/>
       <path d="M 991 0 
L 428 0 
L 428 3316 
L 991 3316 
L 991 0 
z
M 991 3944 
L 428 3944 
L 428 4581 
L 991 4581 
L 991 3944 
z
" id="ArialUnicodeMS-69" transform="scale(0.015625)"/>
      </defs>
      <use xlink:href="#ArialUnicodeMS-4e"/>
      <use x="72.216797" xlink:href="#ArialUnicodeMS-75"/>
      <use x="127.832031" xlink:href="#ArialUnicodeMS-6d"/>
      <use x="211.132812" xlink:href="#ArialUnicodeMS-62"/>
      <use x="266.748047" xlink:href="#ArialUnicodeMS-65"/>
      <use x="322.363281" xlink:href="#ArialUnicodeMS-72"/>
      <use x="355.664062" xlink:href="#ArialUnicodeMS-20"/>
      <use x="383.447266" xlink:href="#ArialUnicodeMS-6f"/>
      <use x="439.0625" xlink:href="#ArialUnicodeMS-66"/>
      <use x="466.845703" xlink:href="#ArialUnicodeMS-20"/>
      <use x="494.628906" xlink:href="#ArialUnicodeMS-47"/>
      <use x="572.412109" xlink:href="#ArialUnicodeMS-65"/>
      <use x="628.027344" xlink:href="#ArialUnicodeMS-6e"/>
      <use x="683.642578" xlink:href="#ArialUnicodeMS-65"/>
      <use x="739.257812" xlink:href="#ArialUnicodeMS-72"/>
      <use x="772.558594" xlink:href="#ArialUnicodeMS-61"/>
      <use x="828.173828" xlink:href="#ArialUnicodeMS-74"/>
      <use x="855.957031" xlink:href="#ArialUnicodeMS-69"/>
      <use x="878.173828" xlink:href="#ArialUnicodeMS-6f"/>
      <use x="933.789062" xlink:href="#ArialUnicodeMS-6e"/>
     </g>
    </g>
   </g>
   <g id="matplotlib.axis_2">
    <g id="ytick_1">
     <g id="line2d_7">
      <defs>
       <path d="M 0 0 
L -3.5 0 
" id="mf37e01b075" style="stroke:#000000;stroke-width:0.8;"/>
      </defs>
      <g>
       <use style="stroke:#000000;stroke-width:0.8;" x="36.240625" xlink:href="#mf37e01b075" y="267.970655"/>
      </g>
     </g>
     <g id="text_8">
      <!-- -2 -->
      <g transform="translate(20.35 271.549562)scale(0.1 -0.1)">
       <defs>
        <path d="M 1925 1375 
L 206 1375 
L 206 1941 
L 1925 1941 
L 1925 1375 
z
" id="ArialUnicodeMS-2d" transform="scale(0.015625)"/>
       </defs>
       <use xlink:href="#ArialUnicodeMS-2d"/>
       <use x="33.300781" xlink:href="#ArialUnicodeMS-32"/>
      </g>
     </g>
    </g>
    <g id="ytick_2">
     <g id="line2d_8">
      <g>
       <use style="stroke:#000000;stroke-width:0.8;" x="36.240625" xlink:href="#mf37e01b075" y="233.927308"/>
      </g>
     </g>
     <g id="text_9">
      <!-- -1 -->
      <g transform="translate(20.35 237.506214)scale(0.1 -0.1)">
       <use xlink:href="#ArialUnicodeMS-2d"/>
       <use x="33.300781" xlink:href="#ArialUnicodeMS-31"/>
      </g>
     </g>
    </g>
    <g id="ytick_3">
     <g id="line2d_9">
      <g>
       <use style="stroke:#000000;stroke-width:0.8;" x="36.240625" xlink:href="#mf37e01b075" y="199.88396"/>
      </g>
     </g>
     <g id="text_10">
      <!-- 0 -->
      <g transform="translate(23.679687 203.462866)scale(0.1 -0.1)">
       <use xlink:href="#ArialUnicodeMS-30"/>
      </g>
     </g>
    </g>
    <g id="ytick_4">
     <g id="line2d_10">
      <g>
       <use style="stroke:#000000;stroke-width:0.8;" x="36.240625" xlink:href="#mf37e01b075" y="165.840612"/>
      </g>
     </g>
     <g id="text_11">
      <!-- 1 -->
      <g transform="translate(23.679687 169.419519)scale(0.1 -0.1)">
       <use xlink:href="#ArialUnicodeMS-31"/>
      </g>
     </g>
    </g>
    <g id="ytick_5">
     <g id="line2d_11">
      <g>
       <use style="stroke:#000000;stroke-width:0.8;" x="36.240625" xlink:href="#mf37e01b075" y="131.797265"/>
      </g>
     </g>
     <g id="text_12">
      <!-- 2 -->
      <g transform="translate(23.679687 135.376171)scale(0.1 -0.1)">
       <use xlink:href="#ArialUnicodeMS-32"/>
      </g>
     </g>
    </g>
    <g id="ytick_6">
     <g id="line2d_12">
      <g>
       <use style="stroke:#000000;stroke-width:0.8;" x="36.240625" xlink:href="#mf37e01b075" y="97.753917"/>
      </g>
     </g>
     <g id="text_13">
      <!-- 3 -->
      <g transform="translate(23.679687 101.332823)scale(0.1 -0.1)">
       <defs>
        <path d="M 2425 2478 
Q 2850 2397 3067 2067 
Q 3284 1738 3284 1350 
Q 3284 725 2829 323 
Q 2375 -78 1741 -78 
Q 1134 -78 740 275 
Q 347 628 281 1209 
L 844 1288 
Q 928 834 1151 609 
Q 1375 384 1741 384 
Q 2134 384 2407 661 
Q 2681 938 2681 1338 
Q 2681 1722 2432 1975 
Q 2184 2228 1784 2228 
Q 1622 2228 1388 2169 
L 1453 2663 
Q 1678 2663 1809 2684 
Q 1941 2706 2103 2790 
Q 2266 2875 2372 3033 
Q 2478 3191 2478 3425 
Q 2478 3766 2251 3953 
Q 2025 4141 1728 4141 
Q 1388 4141 1173 3925 
Q 959 3709 903 3309 
L 341 3413 
Q 450 4009 823 4306 
Q 1197 4603 1716 4603 
Q 2288 4603 2670 4258 
Q 3053 3913 3053 3413 
Q 3053 2772 2425 2491 
L 2425 2478 
z
" id="ArialUnicodeMS-33" transform="scale(0.015625)"/>
       </defs>
       <use xlink:href="#ArialUnicodeMS-33"/>
      </g>
     </g>
    </g>
    <g id="ytick_7">
     <g id="line2d_13">
      <g>
       <use style="stroke:#000000;stroke-width:0.8;" x="36.240625" xlink:href="#mf37e01b075" y="63.710569"/>
      </g>
     </g>
     <g id="text_14">
      <!-- 4 -->
      <g transform="translate(23.679687 67.289476)scale(0.1 -0.1)">
       <use xlink:href="#ArialUnicodeMS-34"/>
      </g>
     </g>
    </g>
    <g id="ytick_8">
     <g id="line2d_14">
      <g>
       <use style="stroke:#000000;stroke-width:0.8;" x="36.240625" xlink:href="#mf37e01b075" y="29.667222"/>
      </g>
     </g>
     <g id="text_15">
      <!-- 5 -->
      <g transform="translate(23.679687 33.246128)scale(0.1 -0.1)">
       <defs>
        <path d="M 1013 2753 
Q 1431 3041 1881 3041 
Q 2453 3041 2878 2636 
Q 3303 2231 3303 1556 
Q 3303 875 2872 398 
Q 2441 -78 1741 -78 
Q 1169 -78 750 245 
Q 331 569 269 1203 
L 856 1247 
Q 928 813 1162 598 
Q 1397 384 1741 384 
Q 2169 384 2434 707 
Q 2700 1031 2700 1503 
Q 2700 1984 2428 2262 
Q 2156 2541 1728 2541 
Q 1188 2541 897 2100 
L 366 2163 
L 813 4519 
L 3084 4519 
L 3084 3975 
L 1259 3975 
L 1013 2753 
z
" id="ArialUnicodeMS-35" transform="scale(0.015625)"/>
       </defs>
       <use xlink:href="#ArialUnicodeMS-35"/>
      </g>
     </g>
    </g>
    <g id="text_16">
     <!-- Value -->
     <g transform="translate(14.357812 153.0435)rotate(-90)scale(0.1 -0.1)">
      <defs>
       <path d="M 4225 4581 
L 2431 0 
L 1813 0 
L 38 4581 
L 691 4581 
L 1881 1253 
Q 2016 934 2119 506 
L 2131 506 
Q 2225 872 2369 1253 
L 3609 4581 
L 4225 4581 
z
" id="ArialUnicodeMS-56" transform="scale(0.015625)"/>
       <path d="M 991 0 
L 428 0 
L 428 4581 
L 991 4581 
L 991 0 
z
" id="ArialUnicodeMS-6c" transform="scale(0.015625)"/>
      </defs>
      <use xlink:href="#ArialUnicodeMS-56"/>
      <use x="66.699219" xlink:href="#ArialUnicodeMS-61"/>
      <use x="122.314453" xlink:href="#ArialUnicodeMS-6c"/>
      <use x="144.53125" xlink:href="#ArialUnicodeMS-75"/>
      <use x="200.146484" xlink:href="#ArialUnicodeMS-65"/>
     </g>
    </g>
   </g>
   <g id="line2d_15">
    <path clip-path="url(#p2154d165ff)" d="M 52.473352 19.296 
L 55.752691 68.390244 
L 59.03203 95.963548 
L 62.311369 65.137963 
L 65.590708 132.270567 
L 68.870046 182.412524 
L 72.149385 192.22867 
L 75.428724 233.504751 
L 78.708063 254.214521 
L 81.987402 257.899089 
L 85.266741 260.280711 
L 88.54608 261.063039 
L 91.825418 261.180601 
L 95.104757 261.210907 
L 98.384096 261.214323 
L 101.663435 261.215136 
L 104.942774 261.215906 
L 108.222113 261.215999 
L 111.501451 261.216 
L 114.78079 261.216 
L 118.060129 261.216 
L 121.339468 261.216 
L 124.618807 261.216 
L 127.898146 261.216 
L 131.177485 261.216 
L 134.456823 261.216 
L 137.736162 261.216 
L 141.015501 261.216 
L 144.29484 261.216 
L 147.574179 261.216 
L 150.853518 261.216 
L 154.132856 261.216 
L 157.412195 261.216 
L 160.691534 261.216 
L 163.970873 261.216 
L 167.250212 261.216 
L 170.529551 261.216 
L 173.808889 261.216 
L 177.088228 261.216 
L 180.367567 261.216 
L 183.646906 261.216 
L 186.926245 261.216 
L 190.205584 261.216 
L 193.484923 261.216 
L 196.764261 261.216 
L 200.0436 261.216 
L 203.322939 261.216 
L 206.602278 261.216 
L 209.881617 261.216 
L 213.160956 261.216 
L 216.440294 261.216 
L 219.719633 261.216 
L 222.998972 261.216 
L 226.278311 261.216 
L 229.55765 261.216 
L 232.836989 261.216 
L 236.116327 261.216 
L 239.395666 261.216 
L 242.675005 261.216 
L 245.954344 261.216 
L 249.233683 261.216 
L 252.513022 261.216 
L 255.792361 261.216 
L 259.071699 261.216 
L 262.351038 261.216 
L 265.630377 261.216 
L 268.909716 261.216 
L 272.189055 261.216 
L 275.468394 261.216 
L 278.747732 261.216 
L 282.027071 261.216 
L 285.30641 261.216 
L 288.585749 261.216 
L 291.865088 261.216 
L 295.144427 261.216 
L 298.423765 261.216 
L 301.703104 261.216 
L 304.982443 261.216 
L 308.261782 261.216 
L 311.541121 261.216 
L 314.82046 261.216 
L 318.099799 261.216 
L 321.379137 261.216 
L 324.658476 261.216 
L 327.937815 261.216 
L 331.217154 261.216 
L 334.496493 261.216 
L 337.775832 261.216 
L 341.05517 261.216 
L 344.334509 261.216 
L 347.613848 261.216 
L 350.893187 261.216 
L 354.172526 261.216 
L 357.451865 261.216 
L 360.731204 261.216 
L 364.010542 261.216 
L 367.289881 261.216 
L 370.56922 261.216 
L 373.848559 261.216 
L 377.127898 261.216 
" style="fill:none;stroke:#1f77b4;stroke-linecap:square;stroke-width:1.5;"/>
   </g>
   <g id="line2d_16">
    <path clip-path="url(#p2154d165ff)" d="M 52.473352 233.723846 
L 55.752691 233.723846 
L 59.03203 245.382266 
L 62.311369 245.382266 
L 65.590708 245.400059 
L 68.870046 254.356952 
L 72.149385 261.033074 
L 75.428724 261.078926 
L 78.708063 261.204887 
L 81.987402 261.213455 
L 85.266741 261.213455 
L 88.54608 261.213465 
L 91.825418 261.216 
L 95.104757 261.216 
L 98.384096 261.216 
L 101.663435 261.216 
L 104.942774 261.216 
L 108.222113 261.216 
L 111.501451 261.216 
L 114.78079 261.216 
L 118.060129 261.216 
L 121.339468 261.216 
L 124.618807 261.216 
L 127.898146 261.216 
L 131.177485 261.216 
L 134.456823 261.216 
L 137.736162 261.216 
L 141.015501 261.216 
L 144.29484 261.216 
L 147.574179 261.216 
L 150.853518 261.216 
L 154.132856 261.216 
L 157.412195 261.216 
L 160.691534 261.216 
L 163.970873 261.216 
L 167.250212 261.216 
L 170.529551 261.216 
L 173.808889 261.216 
L 177.088228 261.216 
L 180.367567 261.216 
L 183.646906 261.216 
L 186.926245 261.216 
L 190.205584 261.216 
L 193.484923 261.216 
L 196.764261 261.216 
L 200.0436 261.216 
L 203.322939 261.216 
L 206.602278 261.216 
L 209.881617 261.216 
L 213.160956 261.216 
L 216.440294 261.216 
L 219.719633 261.216 
L 222.998972 261.216 
L 226.278311 261.216 
L 229.55765 261.216 
L 232.836989 261.216 
L 236.116327 261.216 
L 239.395666 261.216 
L 242.675005 261.216 
L 245.954344 261.216 
L 249.233683 261.216 
L 252.513022 261.216 
L 255.792361 261.216 
L 259.071699 261.216 
L 262.351038 261.216 
L 265.630377 261.216 
L 268.909716 261.216 
L 272.189055 261.216 
L 275.468394 261.216 
L 278.747732 261.216 
L 282.027071 261.216 
L 285.30641 261.216 
L 288.585749 261.216 
L 291.865088 261.216 
L 295.144427 261.216 
L 298.423765 261.216 
L 301.703104 261.216 
L 304.982443 261.216 
L 308.261782 261.216 
L 311.541121 261.216 
L 314.82046 261.216 
L 318.099799 261.216 
L 321.379137 261.216 
L 324.658476 261.216 
L 327.937815 261.216 
L 331.217154 261.216 
L 334.496493 261.216 
L 337.775832 261.216 
L 341.05517 261.216 
L 344.334509 261.216 
L 347.613848 261.216 
L 350.893187 261.216 
L 354.172526 261.216 
L 357.451865 261.216 
L 360.731204 261.216 
L 364.010542 261.216 
L 367.289881 261.216 
L 370.56922 261.216 
L 373.848559 261.216 
L 377.127898 261.216 
" style="fill:none;stroke:#ff7f0e;stroke-linecap:square;stroke-width:1.5;"/>
   </g>
   <g id="patch_3">
    <path d="M 36.240625 273.312 
L 36.240625 7.2 
" style="fill:none;stroke:#000000;stroke-linecap:square;stroke-linejoin:miter;stroke-width:0.8;"/>
   </g>
   <g id="patch_4">
    <path d="M 393.360625 273.312 
L 393.360625 7.2 
" style="fill:none;stroke:#000000;stroke-linecap:square;stroke-linejoin:miter;stroke-width:0.8;"/>
   </g>
   <g id="patch_5">
    <path d="M 36.240625 273.312 
L 393.360625 273.312 
" style="fill:none;stroke:#000000;stroke-linecap:square;stroke-linejoin:miter;stroke-width:0.8;"/>
   </g>
   <g id="patch_6">
    <path d="M 36.240625 7.2 
L 393.360625 7.2 
" style="fill:none;stroke:#000000;stroke-linecap:square;stroke-linejoin:miter;stroke-width:0.8;"/>
   </g>
   <g id="legend_1">
    <g id="patch_7">
     <path d="M 244.360625 43.634375 
L 386.360625 43.634375 
Q 388.360625 43.634375 388.360625 41.634375 
L 388.360625 14.2 
Q 388.360625 12.2 386.360625 12.2 
L 244.360625 12.2 
Q 242.360625 12.2 242.360625 14.2 
L 242.360625 41.634375 
Q 242.360625 43.634375 244.360625 43.634375 
z
" style="fill:#ffffff;opacity:0.8;stroke:#cccccc;stroke-linejoin:miter;"/>
    </g>
    <g id="line2d_17">
     <path d="M 246.360625 19.907812 
L 266.360625 19.907812 
" style="fill:none;stroke:#1f77b4;stroke-linecap:square;stroke-width:1.5;"/>
    </g>
    <g id="line2d_18"/>
    <g id="text_17">
     <!-- 种群个体平均目标函数值 -->
     <g transform="translate(274.360625 23.407812)scale(0.1 -0.1)">
      <defs>
       <path d="M 5869 1503 
L 4588 1503 
L 4588 -447 
L 4097 -447 
L 4097 1497 
L 2828 1497 
L 2828 4038 
L 4091 4038 
L 4091 5288 
L 4588 5288 
L 4588 4031 
L 5869 4031 
L 5869 1503 
z
M 4091 1972 
L 4091 3559 
L 3322 3566 
L 3322 1972 
L 4091 1972 
z
M 5369 1972 
L 5369 3559 
L 4588 3559 
L 4588 1972 
L 5369 1972 
z
M 2791 1753 
L 2363 1478 
Q 2163 2081 1913 2322 
L 1913 -434 
L 1434 -434 
L 1434 2047 
L 1422 2047 
Q 1163 1450 672 903 
L 288 1209 
Q 1044 2047 1375 3263 
L 513 3263 
L 519 3738 
L 1434 3738 
L 1434 4441 
Q 1378 4438 1122 4398 
Q 866 4359 659 4366 
L 428 4831 
Q 1544 4838 2463 5241 
L 2713 4819 
Q 2147 4606 1913 4550 
L 1913 3738 
L 2753 3738 
L 2753 3256 
L 1913 3256 
L 1913 2725 
L 2075 2816 
Q 2581 2375 2791 1753 
z
" id="ArialUnicodeMS-79cd" transform="scale(0.015625)"/>
       <path d="M 6144 1172 
L 4947 1172 
L 4947 -397 
L 4459 -397 
L 4459 1172 
L 3250 1172 
L 3250 1638 
L 4459 1638 
L 4459 2522 
L 3647 2522 
L 3647 2988 
L 4459 2988 
L 4459 3803 
L 3584 3803 
L 3584 3591 
L 3188 3591 
L 3188 2522 
L 1716 2522 
Q 1688 2409 1556 2106 
L 3109 2106 
L 3109 -397 
L 2625 -397 
L 2625 -19 
L 1528 -19 
L 1528 -397 
L 1044 -397 
L 1044 1281 
Q 928 1156 609 897 
L 206 1216 
Q 909 1741 1247 2522 
L 722 2522 
L 722 2988 
L 1344 2988 
Q 1391 3159 1428 3591 
L 403 3591 
L 403 4056 
L 1447 4056 
L 1447 4594 
L 722 4594 
L 722 5063 
L 3188 5063 
L 3188 4056 
L 3444 4056 
L 3444 4269 
L 4244 4269 
Q 4009 4781 3513 5147 
L 3922 5403 
Q 4450 5019 4722 4441 
L 4481 4269 
L 4750 4269 
Q 5231 4800 5319 5441 
L 5747 5178 
Q 5659 4691 5331 4269 
L 5972 4269 
L 5972 3803 
L 4947 3803 
L 4947 2988 
L 5766 2988 
L 5766 2522 
L 4947 2522 
L 4947 1638 
L 6144 1638 
L 6144 1172 
z
M 2700 4056 
L 2700 4594 
L 1906 4594 
L 1906 4056 
L 2700 4056 
z
M 2700 2988 
L 2700 3591 
L 1906 3591 
Q 1878 3200 1825 2988 
L 2700 2988 
z
M 2625 447 
L 2625 1638 
L 1528 1638 
L 1528 447 
L 2625 447 
z
" id="ArialUnicodeMS-7fa4" transform="scale(0.015625)"/>
       <path d="M 6113 2503 
L 5728 2163 
Q 3956 3153 3200 4469 
Q 2788 3750 2070 3109 
Q 1353 2469 609 2156 
L 191 2491 
Q 2191 3438 3116 5325 
L 3547 5125 
L 3463 4947 
Q 4066 3694 6113 2503 
z
M 3406 -447 
L 2919 -447 
L 2919 3531 
L 3406 3531 
L 3406 -447 
z
" id="ArialUnicodeMS-4e2a" transform="scale(0.015625)"/>
       <path d="M 2222 5113 
Q 2181 4706 1963 4103 
L 1741 3519 
L 1741 -384 
L 1247 -384 
L 1247 2650 
Q 1047 2381 666 1972 
L 238 2259 
Q 1303 3228 1797 5319 
L 2222 5113 
z
M 6181 1159 
L 5819 781 
Q 5259 1197 4886 1742 
Q 4513 2288 4184 3547 
L 4172 3547 
L 4172 1288 
L 5209 1288 
L 5209 819 
L 4172 819 
L 4172 -409 
L 3688 -409 
L 3688 819 
L 2675 819 
L 2675 1288 
L 3688 1288 
L 3688 3297 
Q 3322 1781 2106 809 
L 1753 1169 
Q 2356 1700 2659 2198 
Q 2963 2697 3200 3597 
L 1997 3597 
L 1997 4063 
L 3688 4063 
L 3688 5306 
L 4172 5306 
L 4172 4063 
L 5919 4063 
L 5919 3597 
L 4653 3597 
Q 4894 2622 5216 2133 
Q 5538 1644 6181 1159 
z
" id="ArialUnicodeMS-4f53" transform="scale(0.015625)"/>
       <path d="M 5888 1875 
L 3419 1875 
L 3419 -447 
L 2931 -447 
L 2931 1875 
L 453 1875 
L 453 2344 
L 2931 2344 
L 2931 4569 
L 856 4569 
L 856 5038 
L 5453 5038 
L 5453 4569 
L 3419 4569 
L 3419 2344 
L 5888 2344 
L 5888 1875 
z
M 5241 4197 
Q 4981 3381 4134 2522 
L 3700 2803 
Q 4584 3606 4819 4422 
L 5241 4197 
z
M 2528 2753 
L 2081 2509 
Q 1700 3606 953 4153 
L 1428 4384 
Q 2109 3784 2528 2753 
z
" id="ArialUnicodeMS-5e73" transform="scale(0.015625)"/>
       <path d="M 5797 4459 
Q 5772 1716 5730 978 
Q 5688 241 5458 -81 
Q 5228 -403 4744 -403 
Q 4606 -403 4006 -306 
L 3847 250 
Q 4413 128 4788 128 
Q 5022 128 5133 340 
Q 5244 553 5283 1968 
Q 5322 3384 5306 3994 
L 3347 3994 
Q 3056 3181 2559 2650 
L 2156 2944 
Q 2253 3025 2344 3128 
L 1728 3128 
L 1728 1441 
L 2541 1766 
L 2541 1259 
L 641 538 
L 319 978 
L 1241 1288 
L 1241 3128 
L 488 3128 
L 488 3597 
L 1241 3597 
L 1241 5100 
L 1728 5100 
L 1728 3597 
L 2413 3597 
L 2413 3231 
Q 3006 4097 3194 5319 
L 3675 5166 
Q 3572 4644 3494 4459 
L 5797 4459 
z
M 4813 2566 
L 2888 2566 
L 2888 3041 
L 4813 3041 
L 4813 2566 
z
M 4959 1900 
L 4959 1409 
Q 4266 1156 2706 709 
L 2431 1153 
Q 4391 1697 4959 1900 
z
" id="ArialUnicodeMS-5747" transform="scale(0.015625)"/>
       <path d="M 4909 -269 
L 4403 -269 
L 4403 288 
L 1825 288 
L 1825 -269 
L 1319 -269 
L 1319 4934 
L 4909 4934 
L 4909 -269 
z
M 4403 3609 
L 4403 4469 
L 1825 4469 
L 1825 3609 
L 4403 3609 
z
M 4403 2228 
L 4403 3144 
L 1825 3144 
L 1825 2228 
L 4403 2228 
z
M 4403 775 
L 4403 1759 
L 1825 1759 
L 1825 775 
L 4403 775 
z
" id="ArialUnicodeMS-76ee" transform="scale(0.015625)"/>
       <path d="M 2597 2169 
L 2175 1931 
Q 2006 2331 1703 2772 
L 1691 2772 
L 1691 -353 
L 1203 -353 
L 1203 2253 
L 1191 2253 
Q 1022 1659 494 1106 
L 134 1453 
Q 966 2294 1172 3653 
L 372 3653 
L 372 4122 
L 1203 4122 
L 1203 5331 
L 1691 5331 
L 1691 4122 
L 2419 4122 
L 2419 3653 
L 1691 3653 
L 1691 3091 
L 1875 3206 
Q 2334 2725 2597 2169 
z
M 5569 4384 
L 2669 4384 
L 2669 4825 
L 5569 4825 
L 5569 4384 
z
M 5863 2931 
L 4353 2931 
L 4353 422 
Q 4353 78 4300 -64 
Q 4247 -206 4150 -261 
Q 4053 -316 3397 -378 
L 3219 116 
L 3756 91 
Q 3866 91 3866 281 
L 3866 2931 
L 2388 2931 
L 2388 3372 
L 5863 3372 
L 5863 2931 
z
M 6016 728 
L 5556 481 
Q 5247 1438 4531 2309 
L 4909 2547 
Q 5678 1606 6016 728 
z
M 3494 2316 
Q 3028 1181 2222 459 
L 1825 781 
Q 2694 1544 3097 2528 
L 3494 2316 
z
" id="ArialUnicodeMS-6807" transform="scale(0.015625)"/>
       <path d="M 5881 4647 
L 2638 4647 
L 2516 4084 
L 3553 4084 
L 3553 1966 
L 3828 2272 
Q 4709 1903 5141 1375 
L 4825 997 
Q 4300 1613 3553 1900 
L 3553 1056 
Q 3553 838 3386 723 
Q 3219 609 3078 609 
L 2463 609 
L 2291 1100 
L 2881 1075 
Q 3072 1066 3072 1228 
L 3072 3609 
L 2419 3609 
L 2363 3413 
L 1894 3481 
L 2150 4647 
L 519 4647 
L 519 5113 
L 5881 5113 
L 5881 4647 
z
M 5638 -391 
L 5153 -391 
L 5153 -19 
L 1253 -19 
L 1253 -391 
L 763 -391 
L 763 3969 
L 1247 3969 
L 1247 3097 
L 1538 3413 
Q 2266 3156 2741 2656 
L 2413 2291 
Q 1938 2816 1247 3053 
L 1247 447 
L 5147 447 
L 5147 3969 
L 5638 3969 
L 5638 -391 
z
M 5069 3397 
Q 4744 2825 3969 2381 
L 3622 2747 
Q 4263 3053 4703 3700 
L 5069 3397 
z
M 2925 1825 
Q 2188 1438 1631 1125 
L 1306 1503 
Q 1738 1706 2919 2350 
L 2919 1825 
L 2925 1825 
z
" id="ArialUnicodeMS-51fd" transform="scale(0.015625)"/>
       <path d="M 6138 19 
L 5806 -378 
Q 5031 194 4697 716 
Q 4344 144 3328 -441 
L 2981 -50 
Q 3966 434 4403 1153 
Q 4038 1834 3866 2753 
Q 3678 2356 3353 1919 
L 2950 2203 
Q 3838 3172 3963 5253 
L 4409 5125 
Q 4341 4384 4269 4006 
L 5984 4006 
L 5984 3547 
L 5619 3541 
L 5594 3341 
Q 5441 2113 4978 1191 
Q 5281 672 6138 19 
z
M 5166 3541 
L 4172 3541 
Q 4297 2419 4691 1650 
Q 5038 2513 5166 3541 
z
M 3438 3653 
L 2209 3653 
L 2209 2338 
L 1919 2338 
Q 1900 2269 1753 1931 
L 3225 1931 
L 3225 1472 
L 2913 1472 
Q 2763 991 2503 666 
Q 2947 353 3103 184 
L 2747 -172 
Q 2463 138 2150 313 
Q 1322 -225 563 -428 
L 269 6 
Q 1106 163 1684 563 
Q 1291 756 703 884 
L 1038 1472 
L 403 1472 
L 403 1931 
L 1259 1931 
Q 1328 2056 1466 2553 
L 1747 2484 
L 1747 3653 
L 1716 3653 
Q 1413 2881 678 2456 
L 378 2803 
Q 938 3091 1241 3653 
L 403 3653 
L 403 4122 
L 1747 4122 
L 1747 5228 
L 2209 5228 
L 2209 4122 
L 3438 4122 
L 3438 3653 
z
M 2406 1472 
L 1538 1472 
Q 1422 1241 1369 1153 
Q 1388 1159 2069 884 
Q 2219 1031 2406 1472 
z
M 1625 4441 
L 1288 4159 
Q 1022 4547 575 4813 
L 878 5075 
Q 1394 4844 1625 4441 
z
M 3384 4844 
Q 3097 4409 2669 4172 
L 2322 4481 
Q 2806 4759 3047 5069 
L 3384 4844 
z
M 3303 2888 
L 2944 2578 
Q 2706 3025 2291 3297 
L 2584 3566 
Q 2988 3359 3303 2888 
z
" id="ArialUnicodeMS-6570" transform="scale(0.015625)"/>
       <path d="M 6034 -172 
L 1791 -172 
L 1791 294 
L 2344 294 
L 2344 3853 
L 3425 3853 
Q 3544 4109 3609 4341 
L 1925 4341 
L 1919 4672 
Q 1841 4369 1691 3981 
L 1544 3622 
L 1544 -434 
L 1056 -434 
L 1056 2753 
Q 859 2466 634 2241 
L 238 2516 
Q 1222 3619 1588 5325 
L 2028 5172 
Q 2009 5038 1953 4806 
L 3731 4806 
Q 3772 4997 3781 5338 
L 4275 5253 
Q 4275 5013 4225 4806 
L 5813 4806 
L 5813 4341 
L 4134 4341 
Q 4091 4188 3956 3853 
L 5409 3853 
L 5409 294 
L 6034 294 
L 6034 -172 
z
M 4922 2994 
L 4922 3384 
L 2828 3384 
L 2828 2994 
L 4922 2994 
z
M 4922 2138 
L 4922 2584 
L 2828 2584 
L 2828 2138 
L 4922 2138 
z
M 4922 1241 
L 4922 1716 
L 2828 1716 
L 2828 1241 
L 4922 1241 
z
M 4922 294 
L 4922 825 
L 2828 825 
L 2828 294 
L 4922 294 
z
" id="ArialUnicodeMS-503c" transform="scale(0.015625)"/>
      </defs>
      <use xlink:href="#ArialUnicodeMS-79cd"/>
      <use x="100" xlink:href="#ArialUnicodeMS-7fa4"/>
      <use x="200" xlink:href="#ArialUnicodeMS-4e2a"/>
      <use x="300" xlink:href="#ArialUnicodeMS-4f53"/>
      <use x="400" xlink:href="#ArialUnicodeMS-5e73"/>
      <use x="500" xlink:href="#ArialUnicodeMS-5747"/>
      <use x="600" xlink:href="#ArialUnicodeMS-76ee"/>
      <use x="700" xlink:href="#ArialUnicodeMS-6807"/>
      <use x="800" xlink:href="#ArialUnicodeMS-51fd"/>
      <use x="900" xlink:href="#ArialUnicodeMS-6570"/>
      <use x="1000" xlink:href="#ArialUnicodeMS-503c"/>
     </g>
    </g>
    <g id="line2d_19">
     <path d="M 246.360625 34.142187 
L 266.360625 34.142187 
" style="fill:none;stroke:#ff7f0e;stroke-linecap:square;stroke-width:1.5;"/>
    </g>
    <g id="line2d_20"/>
    <g id="text_18">
     <!-- 种群最优个体目标函数值 -->
     <g transform="translate(274.360625 37.642187)scale(0.1 -0.1)">
      <defs>
       <path d="M 4953 3156 
L 1313 3156 
L 1313 5013 
L 4953 5013 
L 4953 3156 
z
M 4469 4288 
L 4469 4569 
L 1797 4569 
L 1797 4288 
L 4469 4288 
z
M 4469 3597 
L 4469 3866 
L 1797 3866 
L 1797 3597 
L 4469 3597 
z
M 5856 2509 
L 3278 2509 
L 3278 -441 
L 2772 -441 
L 2772 244 
L 603 -97 
L 341 366 
L 1013 428 
L 1013 2509 
L 434 2509 
L 434 2975 
L 5856 2975 
L 5856 2509 
z
M 2772 2163 
L 2772 2509 
L 1497 2509 
L 1497 2163 
L 2772 2163 
z
M 2772 1394 
L 2772 1722 
L 1497 1722 
L 1497 1394 
L 2772 1394 
z
M 2772 672 
L 2772 953 
L 1497 953 
L 1497 494 
Q 2403 603 2772 672 
z
M 5984 -44 
L 5663 -416 
Q 5122 -197 4594 319 
Q 3928 -288 3603 -469 
L 3316 -84 
Q 3966 316 4294 653 
Q 3809 1303 3725 1813 
L 3456 1813 
L 3456 2278 
L 5563 2278 
Q 5391 1306 4897 666 
Q 5334 216 5984 -44 
z
M 5006 1813 
L 4166 1813 
Q 4297 1406 4575 1019 
Q 4928 1550 5006 1813 
z
" id="ArialUnicodeMS-6700" transform="scale(0.015625)"/>
       <path d="M 2266 5184 
Q 2169 4791 1981 4253 
L 1791 3750 
L 1791 -384 
L 1300 -384 
L 1300 2784 
Q 984 2284 684 1984 
L 269 2291 
Q 1409 3556 1813 5375 
L 2266 5184 
z
M 6047 738 
Q 5903 -206 5556 -206 
L 4238 -206 
Q 3803 -206 3803 213 
L 3803 2291 
L 3781 2291 
Q 3522 381 2138 -409 
L 1813 -25 
Q 3300 856 3425 3263 
L 2041 3263 
L 2041 3731 
L 3450 3731 
L 3450 5319 
L 3938 5319 
L 3938 3731 
L 5972 3731 
L 5972 3263 
L 3922 3263 
L 3903 3016 
L 4306 3016 
L 4306 384 
Q 4306 263 4416 263 
L 5331 263 
Q 5456 263 5511 422 
Q 5566 581 5575 1100 
L 6047 738 
z
M 5484 4072 
L 5088 3769 
Q 4841 4206 4166 4697 
L 4531 5013 
Q 5038 4672 5484 4072 
z
" id="ArialUnicodeMS-4f18" transform="scale(0.015625)"/>
      </defs>
      <use xlink:href="#ArialUnicodeMS-79cd"/>
      <use x="100" xlink:href="#ArialUnicodeMS-7fa4"/>
      <use x="200" xlink:href="#ArialUnicodeMS-6700"/>
      <use x="300" xlink:href="#ArialUnicodeMS-4f18"/>
      <use x="400" xlink:href="#ArialUnicodeMS-4e2a"/>
      <use x="500" xlink:href="#ArialUnicodeMS-4f53"/>
      <use x="600" xlink:href="#ArialUnicodeMS-76ee"/>
      <use x="700" xlink:href="#ArialUnicodeMS-6807"/>
      <use x="800" xlink:href="#ArialUnicodeMS-51fd"/>
      <use x="900" xlink:href="#ArialUnicodeMS-6570"/>
      <use x="1000" xlink:href="#ArialUnicodeMS-503c"/>
     </g>
    </g>
   </g>
  </g>
 </g>
 <defs>
  <clipPath id="p2154d165ff">
   <rect height="266.112" width="357.12" x="36.240625" y="7.2"/>
  </clipPath>
 </defs>
</svg>
